<svg width="100" height="36" viewBox="0 0 117 36" fill="none" xmlns="http://www.w3.org/2000/svg">
<rect width="117" height="36" rx="16" fill="#2B388F"/>
<path d="M35.7419 20.344C36.7102 19.0227 37.1439 17.3845 36.9562 15.7572C36.7685 14.1298 35.9733 12.6333 34.7297 11.5671C33.486 10.5009 31.8857 9.94361 30.2488 10.0067C28.6118 10.0698 27.0591 10.7486 25.9012 11.9073C24.7433 13.0661 24.0656 14.6193 24.0037 16.2562C23.9418 17.8932 24.5002 19.4932 25.5673 20.7361C26.6344 21.9789 28.1315 22.7731 29.7589 22.9596C31.3864 23.1461 33.0243 22.7112 34.3449 21.742H34.3439C34.3739 21.782 34.4059 21.82 34.4419 21.857L38.2919 25.707C38.4794 25.8946 38.7338 26.0001 38.9991 26.0002C39.2643 26.0003 39.5188 25.895 39.7064 25.7075C39.8941 25.52 39.9995 25.2656 39.9996 25.0004C39.9997 24.7351 39.8944 24.4806 39.7069 24.293L35.8569 20.443C35.8212 20.4068 35.7827 20.3734 35.7419 20.343V20.344ZM35.9999 16.5C35.9999 17.2223 35.8577 17.9375 35.5813 18.6048C35.3049 19.2721 34.8997 19.8784 34.389 20.3891C33.8783 20.8998 33.272 21.3049 32.6047 21.5813C31.9374 21.8577 31.2222 22 30.4999 22C29.7777 22 29.0625 21.8577 28.3952 21.5813C27.7279 21.3049 27.1216 20.8998 26.6108 20.3891C26.1001 19.8784 25.695 19.2721 25.4186 18.6048C25.1422 17.9375 24.9999 17.2223 24.9999 16.5C24.9999 15.0413 25.5794 13.6424 26.6108 12.6109C27.6423 11.5795 29.0412 11 30.4999 11C31.9586 11 33.3576 11.5795 34.389 12.6109C35.4205 13.6424 35.9999 15.0413 35.9999 16.5Z" fill="white"/>
<path d="M56.4219 18.9688C56.4219 19.3281 56.3724 19.6536 56.2734 19.9453C56.1745 20.237 56.0365 20.4948 55.8594 20.7188C55.6875 20.9427 55.4792 21.1354 55.2344 21.2969C54.9948 21.4583 54.7292 21.5911 54.4375 21.6953C54.1458 21.7995 53.8333 21.8776 53.5 21.9297C53.1719 21.9766 52.8047 22 52.3984 22H49.7109C49.5391 22 49.3932 21.9505 49.2734 21.8516C49.1589 21.7474 49.1016 21.5807 49.1016 21.3516V12.5391C49.1016 12.3099 49.1589 12.1458 49.2734 12.0469C49.3932 11.9427 49.5391 11.8906 49.7109 11.8906H52.25C52.8698 11.8906 53.3932 11.9427 53.8203 12.0469C54.2526 12.151 54.6146 12.3099 54.9062 12.5234C55.2031 12.7318 55.4297 12.9974 55.5859 13.3203C55.7422 13.6432 55.8203 14.0234 55.8203 14.4609C55.8203 14.7057 55.7891 14.9375 55.7266 15.1562C55.6641 15.3698 55.5729 15.5651 55.4531 15.7422C55.3333 15.9193 55.1849 16.0755 55.0078 16.2109C54.8359 16.3464 54.638 16.4557 54.4141 16.5391C54.7005 16.5911 54.9635 16.6823 55.2031 16.8125C55.4479 16.9427 55.6589 17.112 55.8359 17.3203C56.0182 17.5234 56.1615 17.763 56.2656 18.0391C56.3698 18.3151 56.4219 18.625 56.4219 18.9688ZM53.7656 14.7109C53.7656 14.5078 53.7344 14.3255 53.6719 14.1641C53.6094 14.0026 53.5156 13.8698 53.3906 13.7656C53.2656 13.6562 53.1068 13.5729 52.9141 13.5156C52.7266 13.4583 52.474 13.4297 52.1562 13.4297H51.1172V16.0547H52.2656C52.5625 16.0547 52.7995 16.0208 52.9766 15.9531C53.1536 15.8802 53.2995 15.7839 53.4141 15.6641C53.5339 15.5391 53.6224 15.3958 53.6797 15.2344C53.737 15.0677 53.7656 14.8932 53.7656 14.7109ZM54.2891 19.0391C54.2891 18.8047 54.25 18.5964 54.1719 18.4141C54.0938 18.2266 53.9792 18.0703 53.8281 17.9453C53.6771 17.8203 53.4844 17.724 53.25 17.6562C53.0156 17.5885 52.7109 17.5547 52.3359 17.5547H51.1172V20.4297H52.6016C52.888 20.4297 53.1276 20.401 53.3203 20.3438C53.5182 20.2812 53.6875 20.1927 53.8281 20.0781C53.974 19.9583 54.0859 19.8125 54.1641 19.6406C54.2474 19.4635 54.2891 19.263 54.2891 19.0391ZM64.5625 21.7344C64.5625 21.7865 64.5495 21.8333 64.5234 21.875C64.4974 21.9115 64.4505 21.9427 64.3828 21.9688C64.3203 21.9948 64.2344 22.013 64.125 22.0234C64.0208 22.0391 63.888 22.0469 63.7266 22.0469C63.5547 22.0469 63.4141 22.0391 63.3047 22.0234C63.2005 22.013 63.1172 21.9948 63.0547 21.9688C62.9922 21.9427 62.9479 21.9115 62.9219 21.875C62.8958 21.8333 62.8828 21.7865 62.8828 21.7344V20.9297C62.4974 21.3464 62.1042 21.6589 61.7031 21.8672C61.3073 22.0755 60.8958 22.1797 60.4688 22.1797C59.9896 22.1797 59.5859 22.1016 59.2578 21.9453C58.9349 21.7891 58.6719 21.5755 58.4688 21.3047C58.2708 21.0339 58.1276 20.7214 58.0391 20.3672C57.9557 20.0078 57.9141 19.5625 57.9141 19.0312V14.7656C57.9141 14.7135 57.9271 14.6693 57.9531 14.6328C57.9844 14.5911 58.0365 14.5573 58.1094 14.5312C58.1875 14.5052 58.2891 14.487 58.4141 14.4766C58.5443 14.4609 58.7031 14.4531 58.8906 14.4531C59.0833 14.4531 59.2422 14.4609 59.3672 14.4766C59.4922 14.487 59.5911 14.5052 59.6641 14.5312C59.7422 14.5573 59.7969 14.5911 59.8281 14.6328C59.8594 14.6693 59.875 14.7135 59.875 14.7656V18.7031C59.875 19.0677 59.8984 19.3464 59.9453 19.5391C59.9922 19.7318 60.0625 19.8984 60.1562 20.0391C60.2552 20.1745 60.3776 20.2812 60.5234 20.3594C60.6745 20.4323 60.849 20.4688 61.0469 20.4688C61.2969 20.4688 61.5469 20.3776 61.7969 20.1953C62.0521 20.013 62.3229 19.7474 62.6094 19.3984V14.7656C62.6094 14.7135 62.6224 14.6693 62.6484 14.6328C62.6797 14.5911 62.7318 14.5573 62.8047 14.5312C62.8828 14.5052 62.9844 14.487 63.1094 14.4766C63.2344 14.4609 63.3932 14.4531 63.5859 14.4531C63.7786 14.4531 63.9375 14.4609 64.0625 14.4766C64.1875 14.487 64.2865 14.5052 64.3594 14.5312C64.4323 14.5573 64.4844 14.5911 64.5156 14.6328C64.5469 14.6693 64.5625 14.7135 64.5625 14.7656V21.7344ZM71.4531 19.7656C71.4531 20.1615 71.3776 20.5104 71.2266 20.8125C71.0807 21.1146 70.8724 21.3672 70.6016 21.5703C70.3307 21.7734 70.0104 21.9245 69.6406 22.0234C69.2708 22.1276 68.8698 22.1797 68.4375 22.1797C68.1771 22.1797 67.9271 22.1589 67.6875 22.1172C67.4531 22.0807 67.2422 22.0339 67.0547 21.9766C66.8672 21.9141 66.7109 21.8516 66.5859 21.7891C66.4609 21.7266 66.3698 21.6693 66.3125 21.6172C66.2552 21.5599 66.2109 21.474 66.1797 21.3594C66.1484 21.2396 66.1328 21.0651 66.1328 20.8359C66.1328 20.6849 66.138 20.5651 66.1484 20.4766C66.1589 20.3828 66.1745 20.3099 66.1953 20.2578C66.2161 20.2005 66.2422 20.1641 66.2734 20.1484C66.3047 20.1276 66.3438 20.1172 66.3906 20.1172C66.4479 20.1172 66.5312 20.151 66.6406 20.2188C66.7552 20.2812 66.8958 20.3516 67.0625 20.4297C67.2292 20.5078 67.4219 20.5807 67.6406 20.6484C67.8646 20.7161 68.1172 20.75 68.3984 20.75C68.5755 20.75 68.7318 20.7318 68.8672 20.6953C69.0078 20.6589 69.1276 20.6068 69.2266 20.5391C69.3307 20.4714 69.4089 20.3854 69.4609 20.2812C69.513 20.1771 69.5391 20.0573 69.5391 19.9219C69.5391 19.7656 69.4896 19.6328 69.3906 19.5234C69.2969 19.4089 69.1693 19.3099 69.0078 19.2266C68.8516 19.1432 68.6719 19.0651 68.4688 18.9922C68.2708 18.9193 68.0651 18.8385 67.8516 18.75C67.6432 18.6615 67.4375 18.5599 67.2344 18.4453C67.0365 18.3307 66.8568 18.1901 66.6953 18.0234C66.5391 17.8568 66.4115 17.6562 66.3125 17.4219C66.2188 17.1875 66.1719 16.9062 66.1719 16.5781C66.1719 16.2448 66.237 15.9401 66.3672 15.6641C66.4974 15.3828 66.6849 15.1432 66.9297 14.9453C67.1745 14.7474 67.4714 14.5938 67.8203 14.4844C68.1745 14.375 68.5703 14.3203 69.0078 14.3203C69.2266 14.3203 69.4375 14.3359 69.6406 14.3672C69.849 14.3984 70.0365 14.4375 70.2031 14.4844C70.3698 14.5312 70.5104 14.5833 70.625 14.6406C70.7396 14.6927 70.8203 14.7396 70.8672 14.7812C70.9193 14.8177 70.9557 14.8568 70.9766 14.8984C70.9974 14.9349 71.013 14.9818 71.0234 15.0391C71.0339 15.0911 71.0417 15.1589 71.0469 15.2422C71.0573 15.3203 71.0625 15.4193 71.0625 15.5391C71.0625 15.6797 71.0573 15.7943 71.0469 15.8828C71.0417 15.9714 71.0286 16.0417 71.0078 16.0938C70.9922 16.1458 70.9688 16.1823 70.9375 16.2031C70.9062 16.2188 70.8698 16.2266 70.8281 16.2266C70.7812 16.2266 70.7083 16.2005 70.6094 16.1484C70.5104 16.0911 70.3854 16.0312 70.2344 15.9688C70.0885 15.9062 69.9167 15.849 69.7188 15.7969C69.526 15.7396 69.3047 15.7109 69.0547 15.7109C68.8776 15.7109 68.724 15.7292 68.5938 15.7656C68.4635 15.8021 68.3568 15.8542 68.2734 15.9219C68.1901 15.9896 68.1276 16.0703 68.0859 16.1641C68.0443 16.2526 68.0234 16.349 68.0234 16.4531C68.0234 16.6146 68.0729 16.75 68.1719 16.8594C68.2708 16.9688 68.401 17.0651 68.5625 17.1484C68.724 17.2318 68.9062 17.3099 69.1094 17.3828C69.3177 17.4557 69.526 17.5365 69.7344 17.625C69.9479 17.7083 70.1562 17.8073 70.3594 17.9219C70.5677 18.0365 70.7526 18.1771 70.9141 18.3438C71.0755 18.5104 71.2057 18.7109 71.3047 18.9453C71.4036 19.1745 71.4531 19.4479 71.4531 19.7656ZM78.2109 20.625C78.2109 20.7604 78.2057 20.875 78.1953 20.9688C78.1901 21.0573 78.1797 21.1328 78.1641 21.1953C78.1536 21.2578 78.138 21.3099 78.1172 21.3516C78.1016 21.388 78.0625 21.4375 78 21.5C77.9375 21.5573 77.8307 21.6302 77.6797 21.7188C77.5286 21.8021 77.3568 21.8776 77.1641 21.9453C76.9714 22.013 76.7604 22.0677 76.5312 22.1094C76.3073 22.151 76.0755 22.1719 75.8359 22.1719C75.2995 22.1719 74.8229 22.0885 74.4062 21.9219C73.9948 21.7552 73.6484 21.5104 73.3672 21.1875C73.0859 20.8594 72.8724 20.4609 72.7266 19.9922C72.5859 19.5234 72.5156 18.987 72.5156 18.3828C72.5156 17.6849 72.6016 17.0833 72.7734 16.5781C72.9505 16.0677 73.1953 15.6458 73.5078 15.3125C73.8203 14.9792 74.1901 14.7318 74.6172 14.5703C75.0443 14.4089 75.513 14.3281 76.0234 14.3281C76.2318 14.3281 76.4349 14.3464 76.6328 14.3828C76.8359 14.4193 77.0234 14.4688 77.1953 14.5312C77.3724 14.5938 77.5286 14.6641 77.6641 14.7422C77.8047 14.8203 77.9036 14.888 77.9609 14.9453C78.0182 15.0026 78.0573 15.0521 78.0781 15.0938C78.1042 15.1302 78.1224 15.1797 78.1328 15.2422C78.1484 15.3047 78.1589 15.3828 78.1641 15.4766C78.1745 15.5651 78.1797 15.6745 78.1797 15.8047C78.1797 16.1068 78.1536 16.3203 78.1016 16.4453C78.0495 16.5651 77.9818 16.625 77.8984 16.625C77.8099 16.625 77.7161 16.5885 77.6172 16.5156C77.5182 16.4427 77.401 16.362 77.2656 16.2734C77.1302 16.1849 76.9688 16.1042 76.7812 16.0312C76.5938 15.9583 76.3698 15.9219 76.1094 15.9219C75.599 15.9219 75.2083 16.1198 74.9375 16.5156C74.6667 16.9062 74.5312 17.4818 74.5312 18.2422C74.5312 18.6172 74.5651 18.9479 74.6328 19.2344C74.7005 19.5208 74.7995 19.7604 74.9297 19.9531C75.0651 20.1458 75.2318 20.2917 75.4297 20.3906C75.6328 20.4844 75.8672 20.5312 76.1328 20.5312C76.4036 20.5312 76.6354 20.4922 76.8281 20.4141C77.026 20.3307 77.1979 20.2396 77.3438 20.1406C77.4896 20.0417 77.612 19.9531 77.7109 19.875C77.8099 19.7917 77.8932 19.75 77.9609 19.75C78.0078 19.75 78.0469 19.763 78.0781 19.7891C78.1094 19.8151 78.1328 19.8646 78.1484 19.9375C78.1693 20.0052 78.1849 20.0938 78.1953 20.2031C78.2057 20.3125 78.2109 20.4531 78.2109 20.625ZM85.4844 21.7578C85.4844 21.8307 85.4583 21.888 85.4062 21.9297C85.3542 21.9714 85.2708 22 85.1562 22.0156C85.0469 22.0365 84.8828 22.0469 84.6641 22.0469C84.4297 22.0469 84.2578 22.0365 84.1484 22.0156C84.0443 22 83.9688 21.9714 83.9219 21.9297C83.8802 21.888 83.8594 21.8307 83.8594 21.7578V21.2031C83.5729 21.5104 83.2448 21.75 82.875 21.9219C82.5104 22.0938 82.1042 22.1797 81.6562 22.1797C81.2865 22.1797 80.9453 22.1302 80.6328 22.0312C80.3255 21.9375 80.0573 21.7969 79.8281 21.6094C79.6042 21.4167 79.4297 21.1797 79.3047 20.8984C79.1797 20.6172 79.1172 20.2891 79.1172 19.9141C79.1172 19.5078 79.1953 19.1562 79.3516 18.8594C79.513 18.5573 79.75 18.3099 80.0625 18.1172C80.3802 17.9193 80.7734 17.7734 81.2422 17.6797C81.7109 17.5859 82.2552 17.5391 82.875 17.5391H83.5547V17.1172C83.5547 16.8984 83.5312 16.7083 83.4844 16.5469C83.4427 16.3802 83.3698 16.2422 83.2656 16.1328C83.1667 16.0234 83.0312 15.9427 82.8594 15.8906C82.6927 15.8385 82.4844 15.8125 82.2344 15.8125C81.9062 15.8125 81.612 15.849 81.3516 15.9219C81.0964 15.9948 80.8698 16.0755 80.6719 16.1641C80.474 16.2526 80.3073 16.3333 80.1719 16.4062C80.0417 16.4792 79.9349 16.5156 79.8516 16.5156C79.7943 16.5156 79.7422 16.4974 79.6953 16.4609C79.6536 16.4245 79.6172 16.3724 79.5859 16.3047C79.5599 16.237 79.5391 16.1536 79.5234 16.0547C79.5078 15.9557 79.5 15.8464 79.5 15.7266C79.5 15.5651 79.513 15.4375 79.5391 15.3438C79.5651 15.25 79.6146 15.1667 79.6875 15.0938C79.7604 15.0156 79.888 14.9323 80.0703 14.8438C80.2526 14.75 80.4661 14.6641 80.7109 14.5859C80.9557 14.5078 81.2214 14.4453 81.5078 14.3984C81.7995 14.3464 82.099 14.3203 82.4062 14.3203C82.9531 14.3203 83.4193 14.375 83.8047 14.4844C84.1953 14.5885 84.5156 14.7526 84.7656 14.9766C85.0156 15.1953 85.1979 15.4792 85.3125 15.8281C85.4271 16.1771 85.4844 16.5911 85.4844 17.0703V21.7578ZM83.5547 18.7734H82.8047C82.487 18.7734 82.2161 18.7969 81.9922 18.8438C81.7682 18.8906 81.5859 18.9609 81.4453 19.0547C81.3047 19.1484 81.2005 19.263 81.1328 19.3984C81.0703 19.5286 81.0391 19.6797 81.0391 19.8516C81.0391 20.1432 81.1302 20.3724 81.3125 20.5391C81.5 20.7057 81.7578 20.7891 82.0859 20.7891C82.362 20.7891 82.6146 20.7188 82.8438 20.5781C83.0781 20.4375 83.3151 20.2318 83.5547 19.9609V18.7734ZM91.9297 15.4141C91.9297 15.6016 91.9245 15.7552 91.9141 15.875C91.9036 15.9948 91.888 16.0885 91.8672 16.1562C91.8464 16.224 91.8177 16.2708 91.7812 16.2969C91.75 16.3229 91.7083 16.3359 91.6562 16.3359C91.6146 16.3359 91.5677 16.3281 91.5156 16.3125C91.4635 16.2917 91.4036 16.2708 91.3359 16.25C91.2734 16.2292 91.2031 16.2109 91.125 16.1953C91.0469 16.1745 90.9609 16.1641 90.8672 16.1641C90.7578 16.1641 90.6484 16.1875 90.5391 16.2344C90.4297 16.276 90.3151 16.3438 90.1953 16.4375C90.0807 16.5312 89.9583 16.6562 89.8281 16.8125C89.7031 16.9688 89.5677 17.1615 89.4219 17.3906V21.7344C89.4219 21.7865 89.4062 21.8333 89.375 21.875C89.3438 21.9115 89.2891 21.9427 89.2109 21.9688C89.138 21.9948 89.0391 22.013 88.9141 22.0234C88.7891 22.0391 88.6302 22.0469 88.4375 22.0469C88.2448 22.0469 88.0859 22.0391 87.9609 22.0234C87.8359 22.013 87.7344 21.9948 87.6562 21.9688C87.5833 21.9427 87.5312 21.9115 87.5 21.875C87.4688 21.8333 87.4531 21.7865 87.4531 21.7344V14.7656C87.4531 14.7135 87.4661 14.6693 87.4922 14.6328C87.5182 14.5911 87.5651 14.5573 87.6328 14.5312C87.7005 14.5052 87.7865 14.487 87.8906 14.4766C88 14.4609 88.1354 14.4531 88.2969 14.4531C88.4635 14.4531 88.6016 14.4609 88.7109 14.4766C88.8203 14.487 88.9036 14.5052 88.9609 14.5312C89.0234 14.5573 89.0677 14.5911 89.0938 14.6328C89.1198 14.6693 89.1328 14.7135 89.1328 14.7656V15.6328C89.3151 15.3724 89.487 15.1589 89.6484 14.9922C89.8099 14.8203 89.9635 14.6849 90.1094 14.5859C90.2552 14.487 90.401 14.4193 90.5469 14.3828C90.6927 14.3411 90.8385 14.3203 90.9844 14.3203C91.0521 14.3203 91.125 14.3255 91.2031 14.3359C91.2812 14.3411 91.362 14.3542 91.4453 14.375C91.5286 14.3906 91.6016 14.4115 91.6641 14.4375C91.7266 14.4583 91.7708 14.4818 91.7969 14.5078C91.8281 14.5339 91.849 14.5625 91.8594 14.5938C91.875 14.625 91.888 14.6693 91.8984 14.7266C91.9089 14.7786 91.9167 14.8594 91.9219 14.9688C91.9271 15.0781 91.9297 15.2266 91.9297 15.4141Z" fill="white"/>
</svg>
